<svg xmlns="http://www.w3.org/2000/svg" width="360" height="720" viewBox="0 0 360 720" role="img" aria-label="Generated side silhouette for petite lower-body emphasis fixture">
  <rect width="360" height="720" fill="#f7f4ef"/>
  <circle cx="180" cy="86" r="31" fill="#2f3a45"/>
  <path d="M157 132 C174 119 202 122 212 140 C222 199 216 281 204 360 C228 411 239 505 226 613 C211 624 191 622 184 607 C184 511 181 450 171 395 C159 458 153 516 146 607 C135 622 116 624 104 612 C103 488 127 405 154 362 C148 284 143 200 157 132 Z" fill="#2f3a45"/>
  <path d="M159 171 C139 225 137 278 151 333" fill="none" stroke="#2f3a45" stroke-width="20" stroke-linecap="round"/>
  <text x="180" y="682" text-anchor="middle" font-family="Arial, sans-serif" font-size="18" fill="#6f655d">petite pear side fixture</text>
</svg>
